<?xml version="1.0" standalone="no"?>
<!DOCTYPE svg PUBLIC "-//W3C//DTD SVG 20010904//EN"
 "http://www.w3.org/TR/2001/REC-SVG-20010904/DTD/svg10.dtd">
<svg version="1.0" xmlns="http://www.w3.org/2000/svg"
 width="400.000000pt" height="400.000000pt" viewBox="0 0 400.000000 400.000000"
 preserveAspectRatio="xMidYMid meet">
<metadata>
Created by potrace 1.11, written by Peter Selinger 2001-2013
</metadata>
<g transform="translate(0.000000,400.000000) scale(0.100000,-0.100000)"
fill="#000000" stroke="none">
<path d="M1935 3990 c-3 -5 -3 -10 2 -10 4 0 2 -4 -5 -9 -15 -9 -21 -99 -8
-119 4 -7 4 -12 -1 -12 -7 0 -9 -94 -3 -110 2 -3 1 -9 0 -15 -1 -5 -2 -28 -1
-50 1 -22 1 -47 1 -55 0 -8 0 -36 -1 -61 -1 -25 0 -50 4 -55 3 -6 2 -16 -3
-24 -9 -15 6 -57 30 -80 17 -17 38 -19 59 -6 10 6 12 5 7 -2 -12 -19 9 -14 38
9 18 14 26 28 23 40 -3 11 -1 19 4 19 6 0 5 8 -1 19 -5 11 -6 22 -2 25 9 5 7
75 -2 84 -3 2 -1 13 4 23 7 12 7 20 0 24 -7 4 -7 13 0 26 8 13 7 19 0 19 -8 0
-8 6 0 20 8 14 8 20 0 20 -6 0 -8 5 -3 13 11 18 12 37 2 37 -6 0 -7 6 -3 12
11 17 12 48 3 48 -9 0 -7 20 4 37 4 6 3 14 -3 18 -6 4 -7 12 0 24 6 12 5 22
-2 29 -9 9 -9 12 0 12 10 0 10 5 1 23 -7 12 -17 25 -23 29 -17 11 -114 9 -121
-2z"/>
<path d="M1165 3860 c-4 -6 -12 -9 -18 -7 -14 4 -29 -9 -46 -41 -7 -14 -8 -22
-1 -22 5 0 10 -7 10 -16 0 -8 7 -22 15 -31 8 -8 13 -18 10 -23 -3 -4 2 -11 11
-14 8 -3 13 -10 10 -15 -3 -5 1 -12 10 -15 8 -3 12 -10 9 -16 -3 -5 -1 -10 4
-10 6 0 11 -7 11 -15 0 -9 7 -18 15 -21 8 -4 12 -10 9 -15 -3 -5 0 -9 5 -9 6
0 11 -7 11 -15 0 -8 5 -15 12 -15 6 0 8 -3 5 -7 -4 -3 1 -12 11 -20 10 -8 11
-11 2 -7 -8 5 0 -9 18 -31 17 -22 32 -44 32 -48 0 -5 13 -26 29 -46 17 -21 31
-44 33 -52 2 -8 11 -21 20 -30 10 -9 15 -19 11 -23 -6 -5 20 -10 40 -7 4 0 7
-3 7 -9 0 -11 28 -9 49 4 10 7 12 5 6 -3 -5 -10 -2 -9 13 0 12 7 19 16 16 20
-2 4 0 10 6 14 13 8 13 45 0 45 -5 0 -7 7 -4 15 4 8 1 15 -6 15 -6 0 -9 4 -5
9 3 5 -3 12 -13 15 -10 3 -18 16 -19 28 -1 13 -8 27 -16 33 -7 5 -26 32 -41
60 -16 27 -37 57 -49 67 -11 10 -15 18 -8 18 7 0 3 10 -9 22 -11 12 -20 26
-20 30 0 5 -5 6 -12 2 -6 -4 -8 -3 -5 3 4 6 -2 21 -12 34 -10 13 -20 29 -22
34 -2 6 -7 9 -11 8 -4 -2 -5 4 -2 12 4 8 1 15 -5 15 -6 0 -11 7 -11 15 0 8 -4
15 -9 15 -5 0 -13 9 -16 21 -4 11 -9 18 -12 15 -4 -3 -12 -1 -20 5 -7 6 -13 8
-13 4 0 -4 -6 -2 -14 4 -10 9 -16 9 -21 1z"/>
<path d="M2780 3848 c0 -5 -3 -7 -7 -5 -10 6 -34 -19 -26 -27 4 -3 2 -6 -4 -6
-6 0 -18 -16 -27 -35 -9 -19 -21 -35 -27 -35 -6 0 -8 -4 -5 -9 3 -5 -1 -14 -9
-21 -8 -7 -12 -16 -9 -21 3 -5 -1 -12 -10 -15 -8 -3 -19 -19 -25 -36 -6 -16
-14 -27 -19 -24 -5 3 -9 0 -9 -7 0 -20 -69 -127 -77 -119 -4 4 -7 3 -6 -3 1
-5 1 -13 0 -17 -1 -5 -3 -14 -4 -20 -1 -7 -8 -12 -15 -10 -7 1 -10 -2 -6 -8 3
-5 1 -10 -5 -10 -6 0 -8 -5 -5 -10 3 -6 -1 -13 -9 -16 -9 -3 -14 -10 -11 -14
3 -5 1 -11 -4 -14 -5 -4 -8 -14 -6 -24 2 -9 4 -24 4 -32 2 -22 52 -44 63 -27
4 7 8 8 8 1 0 -20 28 -11 62 19 18 16 26 26 18 22 -9 -4 -9 -1 3 8 9 8 17 19
17 26 0 6 5 11 11 11 5 0 7 5 4 10 -3 6 -1 10 5 10 10 0 35 48 32 63 -1 4 4 7
12 7 8 0 17 11 20 25 4 14 11 25 16 25 6 0 10 5 10 12 0 6 10 23 23 36 12 14
16 22 8 17 -9 -5 -7 2 5 18 10 15 23 27 27 27 5 0 6 4 3 9 -3 5 1 12 10 15 9
4 14 13 10 21 -3 9 0 15 10 15 8 0 13 4 9 9 -3 6 3 14 12 20 10 6 14 11 9 11
-6 0 -1 7 10 16 10 8 13 12 6 9 -11 -6 -11 -3 0 14 7 12 16 21 20 21 13 0 -13
58 -30 66 -27 11 -92 13 -92 2z"/>
<path d="M545 3439 c-4 -5 -14 -9 -24 -9 -9 0 -28 -12 -40 -26 -18 -21 -20
-28 -10 -35 8 -5 10 -9 6 -9 -5 0 1 -13 13 -30 12 -16 24 -29 28 -28 14 4 52
-14 52 -23 0 -6 5 -7 10 -4 6 3 10 1 10 -5 0 -6 5 -8 10 -5 6 3 10 2 10 -3 0
-4 21 -19 46 -33 64 -34 80 -43 96 -57 8 -6 18 -9 21 -5 4 3 7 1 7 -5 0 -7 7
-12 15 -12 8 0 15 -3 15 -7 0 -5 27 -21 60 -38 33 -16 60 -33 60 -38 0 -4 5
-5 10 -2 6 3 10 1 10 -4 0 -6 6 -11 13 -11 7 0 22 -8 33 -18 11 -11 27 -18 37
-16 9 1 17 -1 17 -5 0 -4 11 -7 25 -7 14 0 25 4 25 8 0 4 6 8 13 8 7 0 20 13
29 28 16 27 16 29 -7 53 -32 32 -48 43 -65 47 -8 2 -16 8 -18 13 -2 5 -10 9
-18 9 -8 0 -14 5 -14 11 0 5 -4 8 -9 4 -5 -3 -16 2 -24 10 -9 8 -20 15 -26 15
-6 0 -11 5 -11 11 0 5 -4 7 -10 4 -5 -3 -10 -2 -10 3 0 8 -44 27 -45 19 -1 -2
-26 19 -56 46 -10 9 -22 17 -26 17 -22 0 -42 13 -37 22 4 7 2 8 -5 4 -7 -5
-26 3 -45 18 -19 14 -36 22 -40 19 -3 -4 -6 -1 -6 5 0 7 -7 12 -15 12 -7 0
-19 8 -24 18 -6 9 -11 13 -11 9 0 -5 -16 0 -35 12 -19 11 -37 16 -40 10z"/>
<path d="M3456 3443 c-4 -5 -11 -8 -14 -9 -26 -3 -62 -18 -62 -25 0 -5 -7 -9
-15 -9 -8 0 -15 -5 -15 -12 0 -6 -3 -8 -7 -5 -3 4 -21 -5 -40 -19 -18 -14 -33
-22 -33 -18 0 3 -6 1 -13 -5 -8 -6 -18 -7 -22 -3 -5 4 -5 2 -2 -4 4 -6 -10
-19 -33 -30 -22 -10 -40 -23 -40 -27 0 -5 -4 -5 -10 -2 -5 3 -10 1 -10 -5 0
-6 -4 -8 -10 -5 -5 3 -10 1 -10 -5 0 -6 -4 -8 -10 -5 -5 3 -10 -2 -10 -11 0
-10 -3 -14 -6 -11 -6 5 -90 -37 -104 -53 -3 -3 -22 -13 -42 -22 -21 -10 -38
-23 -38 -28 0 -6 -3 -9 -8 -6 -10 6 -43 -19 -46 -36 -1 -7 -5 -19 -9 -25 -5
-9 -2 -13 8 -13 9 0 14 -4 10 -9 -7 -12 9 -22 51 -31 20 -5 34 -4 34 2 0 5 8
7 19 3 12 -3 21 0 25 10 3 9 10 13 16 10 5 -3 10 -2 10 4 0 6 11 13 25 17 14
3 25 11 25 16 0 6 6 8 14 5 8 -3 17 0 20 8 2 7 22 22 43 31 21 10 53 29 72 41
18 13 38 20 45 16 6 -3 8 -3 4 2 -7 7 4 15 74 52 15 8 30 19 33 24 4 5 11 7
16 4 5 -4 9 1 9 9 0 10 6 13 15 10 8 -4 15 -2 15 2 0 5 18 17 39 28 69 33 80
89 24 117 -18 9 -30 19 -26 23 3 3 4 6 1 6 -2 0 -8 -3 -12 -7z"/>
<path d="M2045 2921 c-4 -7 -18 -11 -31 -8 -13 2 -24 0 -24 -6 0 -5 -6 -5 -13
2 -8 6 -16 9 -18 6 -3 -2 -36 -7 -74 -9 -39 -3 -88 -8 -110 -12 -22 -4 -50 -7
-62 -8 -13 0 -23 -3 -23 -6 0 -3 -11 -7 -26 -8 -14 -1 -33 -6 -43 -12 -10 -5
-21 -6 -25 -3 -3 3 -6 1 -6 -4 0 -6 -8 -10 -17 -8 -10 1 -23 -2 -30 -7 -7 -5
-18 -6 -24 -2 -8 5 -9 3 -4 -6 5 -8 3 -11 -6 -8 -7 2 -37 -8 -67 -23 -29 -16
-50 -23 -47 -16 4 7 1 5 -7 -4 -7 -9 -24 -20 -38 -24 -30 -9 -153 -89 -170
-110 -7 -8 -17 -12 -23 -8 -5 3 -8 2 -5 -3 4 -9 -36 -53 -50 -54 -4 -1 -12
-11 -19 -23 -7 -12 -12 -19 -13 -15 0 4 -9 0 -19 -9 -11 -9 -18 -20 -15 -25 3
-4 1 -8 -5 -8 -5 0 -18 -13 -27 -29 -10 -17 -21 -28 -26 -25 -4 3 -8 -4 -8
-14 0 -11 -7 -23 -16 -26 -8 -3 -13 -10 -9 -15 3 -6 -3 -14 -12 -20 -10 -5
-17 -11 -15 -13 7 -7 -18 -58 -28 -58 -6 0 -8 -4 -5 -10 3 -5 0 -20 -7 -32 -7
-13 -11 -27 -10 -31 1 -4 -5 -21 -13 -37 -9 -16 -15 -33 -15 -37 0 -5 -3 -24
-7 -43 -10 -48 -10 -50 -13 -52 -1 -2 -4 -12 -6 -23 -5 -34 -9 -50 -15 -60 -4
-5 -6 -22 -5 -37 1 -14 -2 -24 -6 -22 -7 4 -13 -35 -9 -58 0 -5 -3 -8 -7 -8
-4 0 -8 -8 -9 -17 0 -10 -3 -27 -6 -38 -3 -11 -7 -27 -9 -35 -1 -8 -7 -18 -13
-22 -6 -5 -5 -8 4 -8 10 0 11 -3 3 -13 -6 -7 -13 -26 -16 -42 -2 -17 -5 -30
-6 -30 -1 0 -3 -11 -5 -25 -2 -14 -11 -50 -20 -80 -8 -30 -17 -67 -20 -82 -2
-15 -6 -31 -9 -36 -3 -5 -8 -24 -11 -43 -4 -19 -8 -38 -9 -44 -1 -5 -4 -14 -7
-20 -4 -5 -5 -18 -4 -27 2 -10 0 -18 -4 -18 -4 0 -8 -6 -8 -12 -1 -31 -15 -83
-24 -94 -7 -8 -6 -15 2 -19 7 -5 8 -10 1 -14 -6 -3 -12 -20 -14 -36 -2 -17 -6
-32 -10 -35 -4 -3 -8 -20 -10 -38 -1 -18 -5 -32 -8 -32 -3 0 -6 -14 -7 -31 -1
-17 -7 -36 -12 -43 -5 -6 -8 -25 -7 -43 1 -17 -1 -30 -5 -28 -9 6 -30 -105
-22 -118 3 -6 1 -7 -5 -3 -8 5 -12 -3 -12 -24 0 -17 -4 -29 -8 -26 -4 3 -7 -8
-6 -25 1 -16 -2 -29 -6 -29 -5 0 -7 -8 -5 -18 1 -9 -4 -28 -12 -41 -8 -13 -10
-20 -4 -17 6 4 11 2 11 -3 0 -6 -5 -11 -12 -11 -6 0 -9 -3 -5 -6 3 -3 2 -17
-3 -30 -5 -13 -6 -25 -2 -25 4 -1 708 -3 1564 -3 1359 -2 1558 0 1563 13 3 8
1 19 -5 25 -5 5 -10 24 -10 41 0 17 -4 35 -10 41 -5 5 -10 24 -12 42 -1 17 -5
32 -8 32 -3 0 -7 14 -8 32 -2 17 -7 37 -12 43 -6 7 -5 16 3 25 9 10 9 11 0 6
-9 -5 -13 0 -13 16 0 13 -5 29 -12 36 -9 9 -9 12 2 12 11 0 11 3 2 12 -7 7
-12 20 -12 31 0 11 -5 15 -11 11 -8 -5 -8 -1 0 14 8 15 7 23 -3 31 -7 6 -12
21 -11 33 1 13 -4 37 -10 53 -7 17 -10 36 -8 43 3 6 0 12 -6 12 -5 0 -8 9 -6
20 2 11 0 22 -5 25 -5 3 -7 12 -3 20 3 8 1 15 -4 15 -6 0 -10 16 -11 35 -1 19
-6 44 -12 55 -5 10 -11 30 -12 44 -1 15 -6 26 -11 26 -5 0 -4 6 2 14 8 10 9
15 1 18 -6 2 -12 20 -13 40 -1 20 -5 34 -9 31 -7 -4 -13 38 -9 61 1 4 -2 13
-7 20 -11 13 -27 76 -23 94 1 6 -2 12 -7 12 -5 0 -8 11 -6 25 1 14 -3 31 -9
38 -7 6 -12 26 -12 42 0 17 -3 32 -7 35 -4 4 -9 23 -10 43 -2 20 -5 37 -8 37
-3 0 -7 15 -8 32 -2 18 -7 37 -12 42 -4 4 -6 15 -3 22 3 8 1 14 -5 14 -5 0 -8
11 -7 25 2 14 0 25 -4 25 -4 0 -8 14 -9 32 -2 18 -8 36 -15 40 -9 6 -8 8 3 8
11 0 12 2 3 8 -7 4 -13 23 -15 41 -1 18 -6 35 -10 37 -4 3 -8 18 -8 35 0 16
-5 29 -11 29 -6 0 -9 7 -6 15 4 8 2 17 -4 20 -5 4 -7 11 -4 16 4 5 1 9 -4 9
-6 0 -11 7 -11 15 0 8 -4 15 -10 15 -5 0 -9 3 -8 8 4 15 -14 52 -23 47 -5 -3
-6 0 -4 7 6 15 -28 66 -82 124 -17 19 -29 34 -27 34 3 0 -14 18 -36 40 -22 22
-45 40 -51 40 -6 0 -8 4 -4 9 3 5 -4 12 -15 16 -11 3 -20 11 -20 16 0 5 -9 9
-21 9 -11 0 -17 5 -14 10 3 6 1 10 -5 10 -6 0 -9 4 -6 8 2 4 -4 8 -14 9 -11 1
-32 13 -47 27 -14 14 -30 23 -35 20 -4 -3 -8 0 -8 5 0 6 -3 10 -7 9 -5 -1 -27
8 -50 20 -23 12 -49 22 -58 22 -8 0 -15 5 -15 10 0 6 -9 10 -20 10 -11 0 -20
5 -20 10 0 6 -14 10 -31 10 -16 0 -28 4 -24 9 3 6 -3 8 -15 6 -11 -2 -22 0
-25 5 -3 5 -14 7 -25 5 -12 -2 -18 0 -15 6 4 5 -4 9 -17 9 -13 0 -30 4 -38 10
-9 6 -17 5 -22 -3 -6 -9 -8 -9 -8 1 0 7 -15 12 -41 12 -22 0 -38 4 -34 9 3 6
-6 6 -25 1 -17 -5 -28 -5 -25 0 3 4 -13 7 -35 6 -22 -1 -42 3 -44 8 -2 6 -5 5
-5 -3 -1 -11 -4 -10 -14 4 -11 13 -16 15 -22 6z"/>
<path d="M143 330 c-24 -7 -85 -40 -98 -54 -42 -45 -57 -104 -33 -133 11 -14
11 -16 -2 -8 -12 7 -13 6 -3 -7 7 -8 9 -19 5 -23 -4 -5 -1 -5 6 -1 7 5 12 1
12 -9 0 -9 9 -19 20 -22 11 -3 17 -9 14 -14 -3 -5 1 -9 8 -9 8 0 19 -5 26 -12
12 -12 45 -18 102 -19 26 0 31 -2 20 -9 -8 -5 -10 -10 -4 -10 6 0 14 3 18 7
11 11 35 12 42 2 3 -5 11 -6 17 -2 21 13 49 14 41 1 -5 -7 -3 -8 6 -3 6 4 28
10 47 12 27 4 33 2 28 -8 -6 -8 -4 -10 6 -3 21 13 109 13 109 0 0 -7 3 -8 8
-1 9 14 45 14 54 0 5 -7 8 -7 8 1 0 5 11 10 25 10 14 0 25 -5 25 -10 0 -8 3
-8 8 -1 9 14 45 14 54 0 5 -7 8 -7 8 1 0 12 49 12 69 -1 10 -5 12 -4 7 3 -4 7
-1 12 9 12 10 0 13 -5 9 -12 -5 -7 -3 -8 6 -3 6 4 28 10 47 12 27 4 33 2 28
-8 -6 -8 -4 -10 6 -3 21 13 109 13 109 0 0 -7 3 -8 8 -1 9 14 45 14 54 0 5 -7
8 -7 8 1 0 5 11 10 25 10 14 0 25 -5 25 -10 0 -8 3 -8 8 -1 9 14 45 14 54 0 5
-7 8 -7 8 1 0 12 49 12 69 -1 9 -5 12 -4 8 2 -4 7 5 10 23 9 17 0 30 -5 30
-11 0 -7 3 -6 8 0 4 6 16 11 27 11 11 0 23 -5 27 -11 5 -7 8 -7 8 1 0 5 11 10
25 10 14 0 25 -5 25 -10 0 -8 3 -8 8 -1 9 14 45 14 54 0 5 -7 8 -7 8 1 0 12
49 12 69 -1 10 -5 12 -4 7 3 -4 7 -1 12 9 12 10 0 13 -5 9 -12 -5 -7 -3 -8 6
-3 6 4 28 10 47 12 27 4 33 2 28 -8 -6 -8 -4 -10 6 -3 21 13 109 13 109 0 0
-7 3 -8 8 -1 9 14 45 14 54 0 5 -7 8 -7 8 1 0 5 11 10 25 10 14 0 25 -5 25
-10 0 -8 3 -8 8 -1 4 6 16 11 27 11 11 0 23 -5 27 -11 5 -7 8 -7 8 1 0 12 49
12 69 -1 10 -5 12 -4 7 3 -4 7 -1 12 9 12 10 0 13 -5 9 -12 -5 -7 -3 -8 6 -3
6 4 28 10 47 12 27 4 33 2 28 -8 -6 -8 -4 -10 6 -3 21 13 109 13 109 0 0 -7 3
-8 8 -1 9 14 45 14 54 0 5 -7 8 -7 8 1 0 13 50 13 50 0 0 -8 3 -8 8 -1 9 14
45 14 54 0 5 -7 8 -7 8 1 0 12 49 12 69 -1 9 -5 12 -4 8 2 -4 7 5 10 23 9 17
0 30 -5 30 -11 0 -7 3 -6 8 0 9 14 45 14 54 0 5 -7 8 -7 8 1 0 13 50 13 50 0
0 -8 3 -8 8 -1 9 14 45 14 54 0 5 -7 8 -7 8 1 0 12 49 12 69 -1 10 -5 12 -4 7
3 -4 7 -1 12 9 12 10 0 13 -5 9 -12 -5 -7 -3 -8 6 -3 6 4 28 10 47 12 27 4 33
2 28 -8 -6 -8 -4 -10 6 -3 21 13 109 13 109 0 0 -7 3 -8 8 -1 9 14 45 14 54 0
5 -7 8 -7 8 1 0 5 11 10 25 10 14 0 25 -5 25 -10 0 -8 3 -8 8 -1 9 14 45 14
54 0 5 -7 8 -7 8 1 0 12 49 12 69 -1 10 -5 12 -4 7 3 -4 7 -1 12 9 12 10 0 13
-5 9 -12 -5 -7 -3 -8 6 -3 6 4 28 10 47 12 27 4 33 2 28 -8 -6 -8 -4 -10 6 -3
21 13 109 13 109 0 0 -7 3 -8 8 -1 9 14 45 14 54 0 5 -7 8 -7 8 1 0 5 11 10
25 10 14 0 25 -5 25 -10 0 -8 3 -8 8 -1 9 14 45 14 54 0 5 -7 8 -7 8 1 0 6 17
10 40 9 23 -1 43 2 46 7 3 5 10 6 15 3 5 -4 9 -2 9 2 0 5 10 9 22 10 11 1 25
8 29 15 5 7 9 9 9 4 0 -5 11 3 25 18 14 15 25 34 25 42 0 8 4 13 9 10 4 -3 7
18 7 47 -2 39 -9 62 -29 91 -15 21 -27 35 -27 31 0 -4 -20 5 -45 19 -30 18
-45 23 -45 14 0 -8 -3 -9 -8 -3 -7 11 -3661 16 -3699 5z"/>
</g>
</svg>
